<svg id="visual" viewBox="0 0 960 540" width="960" height="540" xmlns="http://www.w3.org/2000/svg" xmlns:xlink="http://www.w3.org/1999/xlink" version="1.1"><g stroke-width="1" stroke-linejoin="bevel"><path d="M505 285L490 390L615 404Z" fill="#29506b" stroke="#29506b"></path><path d="M615 404L633 246L505 285Z" fill="#284b65" stroke="#284b65"></path><path d="M473 540L625 540L615 404Z" fill="#2b7399" stroke="#2b7399"></path><path d="M615 404L779 428L633 246Z" fill="#29506b" stroke="#29506b"></path><path d="M490 390L473 540L615 404Z" fill="#2b5f7f" stroke="#2b5f7f"></path><path d="M633 246L462 147L505 285Z" fill="#29506b" stroke="#29506b"></path><path d="M505 285L321 390L490 390Z" fill="#284b65" stroke="#284b65"></path><path d="M490 390L321 390L473 540Z" fill="#297ea6" stroke="#297ea6"></path><path d="M625 540L779 428L615 404Z" fill="#29506b" stroke="#29506b"></path><path d="M633 246L654 125L462 147Z" fill="#2a5572" stroke="#2a5572"></path><path d="M780 127L654 125L633 246Z" fill="#2b7399" stroke="#2b7399"></path><path d="M297 256L321 390L505 285Z" fill="#284b65" stroke="#284b65"></path><path d="M462 147L297 256L505 285Z" fill="#284b65" stroke="#284b65"></path><path d="M779 428L820 248L633 246Z" fill="#2b7399" stroke="#2b7399"></path><path d="M161 540L328 540L321 390Z" fill="#29506b" stroke="#29506b"></path><path d="M321 390L328 540L473 540Z" fill="#29506b" stroke="#29506b"></path><path d="M820 248L780 127L633 246Z" fill="#2b6e92" stroke="#2b6e92"></path><path d="M625 540L811 540L779 428Z" fill="#284b65" stroke="#284b65"></path><path d="M779 428L960 417L820 248Z" fill="#2b698c" stroke="#2b698c"></path><path d="M462 147L294 159L297 256Z" fill="#2b5f7f" stroke="#2b5f7f"></path><path d="M309 0L294 159L462 147Z" fill="#2b5f7f" stroke="#2b5f7f"></path><path d="M780 127L614 0L654 125Z" fill="#2b6e92" stroke="#2b6e92"></path><path d="M654 125L614 0L462 147Z" fill="#2b5f7f" stroke="#2b5f7f"></path><path d="M614 0L467 0L462 147Z" fill="#297ea6" stroke="#297ea6"></path><path d="M183 140L162 259L294 159Z" fill="#2a799f" stroke="#2a799f"></path><path d="M294 159L162 259L297 256Z" fill="#2a799f" stroke="#2a799f"></path><path d="M297 256L162 259L321 390Z" fill="#2b698c" stroke="#2b698c"></path><path d="M811 540L960 417L779 428Z" fill="#2b6e92" stroke="#2b6e92"></path><path d="M820 248L960 154L780 127Z" fill="#2b5f7f" stroke="#2b5f7f"></path><path d="M960 417L960 256L820 248Z" fill="#29506b" stroke="#29506b"></path><path d="M780 127L825 0L614 0Z" fill="#29506b" stroke="#29506b"></path><path d="M162 259L148 411L321 390Z" fill="#2b7399" stroke="#2b7399"></path><path d="M467 0L309 0L462 147Z" fill="#284b65" stroke="#284b65"></path><path d="M309 0L183 140L294 159Z" fill="#284b65" stroke="#284b65"></path><path d="M960 154L825 0L780 127Z" fill="#2b6485" stroke="#2b6485"></path><path d="M148 411L161 540L321 390Z" fill="#2b6485" stroke="#2b6485"></path><path d="M960 256L960 154L820 248Z" fill="#2b7399" stroke="#2b7399"></path><path d="M811 540L960 540L960 417Z" fill="#2b7399" stroke="#2b7399"></path><path d="M960 154L960 0L825 0Z" fill="#2b5f7f" stroke="#2b5f7f"></path><path d="M309 0L134 0L183 140Z" fill="#284b65" stroke="#284b65"></path><path d="M0 289L148 411L162 259Z" fill="#284b65" stroke="#284b65"></path><path d="M0 289L0 402L148 411Z" fill="#2a5572" stroke="#2a5572"></path><path d="M0 289L162 259L0 135Z" fill="#2b6485" stroke="#2b6485"></path><path d="M148 411L0 540L161 540Z" fill="#2b5f7f" stroke="#2b5f7f"></path><path d="M0 135L162 259L183 140Z" fill="#2a5a78" stroke="#2a5a78"></path><path d="M0 402L0 540L148 411Z" fill="#2a799f" stroke="#2a799f"></path><path d="M134 0L0 135L183 140Z" fill="#2b6e92" stroke="#2b6e92"></path><path d="M134 0L0 0L0 135Z" fill="#2a799f" stroke="#2a799f"></path></g></svg>